 <svg  version="1.0" xmlns="http://www.w3.org/2000/svg"  fill="white" width="300.000000pt" height="300.000000pt" viewBox="0 0 300.000000 300.000000"  preserveAspectRatio="xMidYMid meet">  <g transform="translate(0.000000,300.000000) scale(0.100000,-0.100000)" fill="#ffffff" stroke="none"> <path d="M1935 2234 c-173 -26 -287 -82 -392 -193 -53 -56 -116 -169 -128 -231 -3 -19 -13 -58 -21 -87 l-14 -52 -106 -51 c-58 -28 -109 -49 -112 -46 -3 3 -1 6 5 6 23 0 30 57 31 278 1 239 5 262 41 262 9 0 30 11 46 24 l30 25 -23 23 c-22 23 -25 23 -230 20 -219 -3 -255 -10 -250 -46 2 -15 14 -24 44 -31 22 -5 51 -17 65 -26 l24 -16 0 -276 c1 -285 4 -307 43 -307 31 0 -15 -35 -65 -48 -26 -8 -59 -19 -72 -25 -40 -20 -283 -15 -378 7 -46 11 -83 24 -83 28 0 5 -3 7 -8 4 -4 -2 -32 2 -61 10 -30 7 -56 12 -58 10 -7 -7 123 -57 200 -76 118 -29 235 -35 343 -16 124 21 230 61 444 167 l180 88 0 40 c0 61 46 192 91 260 51 77 115 131 204 176 103 50 188 67 340 68 118 0 337 -25 364 -43 14 -8 0 -282 -14 -287 -6 -2 -16 22 -23 53 -13 65 -41 111 -87 142 -44 31 -176 62 -259 62 -220 -1 -352 -104 -399 -314 -17 -76 -15 -91 11 -77 35 19 186 34 281 28 119 -7 219 -33 340 -87 51 -23 95 -39 98 -36 3 3 -6 11 -21 17 -14 7 -26 15 -26 19 0 10 -125 70 -161 77 -16 3 -29 9 -29 14 0 5 -3 8 -7 7 -5 -1 -39 4 -78 12 -62 13 -230 17 -335 8 -33 -3 -35 -2 -32 27 6 53 51 136 101 184 38 37 63 52 113 66 80 23 172 26 255 9 123 -26 172 -63 200 -150 19 -60 44 -90 68 -80 29 11 40 60 40 186 0 119 -1 123 -25 141 -14 11 -65 25 -120 34 -95 16 -329 27 -385 19z m-652 -54 c4 0 7 -4 7 -9 0 -5 -23 -12 -50 -16 -80 -11 -80 -10 -80 -297 l0 -247 -86 -41 c-48 -22 -90 -40 -93 -40 -3 0 -6 131 -6 291 0 289 0 291 -22 309 -13 10 -45 21 -73 25 -45 6 -58 14 -46 26 3 3 395 3 449 -1z"/> <path d="M1765 1694 c-102 -23 -207 -65 -421 -170 -105 -51 -224 -106 -265 -122 -240 -96 -503 -85 -728 27 -45 23 -87 41 -92 39 -12 -4 86 -69 126 -84 16 -7 41 -16 55 -22 14 -5 28 -10 32 -11 4 -1 37 -10 74 -20 45 -13 105 -19 189 -20 198 -3 320 33 640 190 265 130 391 169 552 173 87 3 199 -8 233 -21 8 -3 22 -7 30 -9 8 -2 31 -6 50 -10 19 -4 42 -8 50 -9 8 -2 31 -6 50 -9 32 -6 31 -4 -16 19 -94 46 -197 67 -349 71 -102 3 -159 -1 -210 -12z"/> <path d="M1715 1564 c-128 -27 -212 -48 -220 -55 -5 -5 -15 -9 -22 -9 -22 0 -276 -119 -281 -132 -2 -4 -10 -8 -18 -8 -7 0 -28 -8 -46 -18 -33 -19 -87 -37 -100 -34 -5 1 -8 -2 -8 -7 0 -5 -10 -11 -22 -14 -13 -3 -50 -12 -83 -21 -33 -10 -78 -19 -100 -22 -100 -11 -216 -31 -223 -39 -11 -11 129 -4 219 11 123 21 279 75 466 162 261 121 359 149 573 160 124 6 125 6 75 18 -48 12 -169 16 -210 8z"/> <path d="M1870 1513 c-56 -8 -205 -36 -208 -39 -2 -1 13 -34 33 -73 40 -76 121 -160 195 -204 74 -43 161 -61 263 -53 97 6 148 24 190 64 31 29 67 92 67 116 0 19 19 31 31 19 11 -11 -25 -218 -41 -238 -21 -26 -147 -46 -284 -46 -184 0 -277 20 -409 89 -77 40 -198 160 -219 218 -6 19 -16 33 -20 32 -4 -2 -75 -34 -157 -73 l-151 -70 0 -50 c0 -74 -25 -179 -57 -238 -50 -94 -196 -220 -301 -259 -35 -14 -57 -2 -28 16 137 82 185 179 200 399 l6 78 -38 -8 c-20 -4 -108 -8 -194 -8 -86 0 -151 -3 -145 -6 36 -20 139 -31 227 -24 125 8 126 8 110 -114 -17 -132 -61 -208 -164 -286 -18 -14 -26 -28 -24 -45 6 -51 80 -33 196 48 34 24 62 47 62 50 0 4 13 16 30 27 16 11 35 32 41 48 6 15 17 31 24 35 21 12 64 134 80 227 8 48 15 89 15 90 0 2 73 38 120 58 19 8 55 24 80 36 l45 21 25 -32 c14 -18 57 -64 95 -104 114 -116 261 -175 470 -189 120 -8 291 8 342 32 40 19 70 62 77 109 3 16 9 56 14 89 19 122 -50 160 -96 53 -36 -85 -114 -127 -234 -128 -93 -1 -120 3 -181 27 -85 33 -153 88 -206 166 -40 58 -37 79 9 88 198 38 265 59 180 57 -25 0 -56 -2 -70 -5z"/> </g> </svg> 