<svg xmlns="http://www.w3.org/2000/svg" xmlns:xlink="http://www.w3.org/1999/xlink" width="500" zoomAndPan="magnify" viewBox="0 0 375 374.999991" height="500" preserveAspectRatio="xMidYMid meet" version="1.0"><defs><clipPath id="d7472e183d"><path d="M 42.65625 59 L 175 59 L 175 108 L 42.65625 108 Z M 42.65625 59 " clip-rule="nonzero"/></clipPath><clipPath id="8e0110bb42"><path d="M 63.179688 176.578125 L 332.148438 176.578125 L 332.148438 374.917969 L 63.179688 374.917969 Z M 63.179688 176.578125 " clip-rule="nonzero"/></clipPath></defs><g clip-path="url(#d7472e183d)"><path fill="#009245" d="M 174.328125 107.679688 C 174.261719 107.761719 152.414062 101.277344 131.316406 91.460938 C 134.449219 91.789062 137.601562 92.199219 140.761719 92.691406 C 134.757812 90.804688 128.761719 89.265625 122.808594 88.058594 C 117.523438 86.984375 112.125 85.652344 106.730469 84.132812 C 106.066406 83.941406 105.40625 83.761719 104.742188 83.574219 C 102.222656 82.867188 99.753906 82.1875 97.324219 81.535156 C 102.058594 81.015625 106.867188 80.679688 111.726562 80.527344 C 107.875 80.078125 104.046875 79.761719 100.253906 79.578125 C 92.042969 79.171875 83.523438 77.914062 75.425781 76.152344 C 74.3125 75.90625 73.222656 75.675781 72.152344 75.449219 C 76.714844 74.511719 81.371094 73.757812 86.109375 73.203125 C 79.863281 73.289062 73.738281 73.75 67.773438 74.554688 C 52.59375 71.601562 42.863281 70.5 42.839844 70.398438 C 42.652344 70.988281 66.375 54.023438 104.125 61.574219 C 142.5 68.164062 175.285156 107.363281 174.328125 107.679688 " fill-opacity="1" fill-rule="nonzero"/></g><path fill="#009245" d="M 177.046875 103.390625 C 176.96875 103.367188 175.3125 86.121094 176.222656 68.457031 C 176.882812 70.761719 177.488281 73.097656 178.042969 75.464844 C 177.664062 70.699219 177.042969 66.035156 176.195312 61.492188 C 175.445312 57.460938 174.847656 53.277344 174.382812 49.039062 C 174.324219 48.519531 174.265625 48 174.207031 47.476562 C 173.988281 45.503906 173.761719 43.566406 173.53125 41.667969 C 175.246094 44.863281 176.851562 48.160156 178.34375 51.546875 C 177.5625 48.695312 176.695312 45.90625 175.742188 43.179688 C 173.691406 37.273438 172.152344 30.910156 171.085938 24.695312 C 170.941406 23.84375 170.796875 23.007812 170.648438 22.1875 C 172.609375 25.140625 174.46875 28.214844 176.207031 31.398438 C 174.367188 27.019531 172.300781 22.824219 170.03125 18.84375 C 167.789062 7.300781 165.789062 0.128906 165.859375 0.0820312 C 165.390625 0.117188 184.101562 12.046875 189.535156 40.816406 C 195.824219 69.753906 177.539062 103.972656 177.046875 103.390625 " fill-opacity="1" fill-rule="nonzero"/><path fill="#009245" d="M 173.617188 110.601562 C 173.597656 110.695312 153.664062 114.703125 132.925781 115.769531 C 135.535156 114.722656 138.191406 113.730469 140.890625 112.796875 C 135.367188 113.816406 129.996094 115.105469 124.796875 116.640625 C 120.183594 118 115.371094 119.203125 110.480469 120.253906 C 109.878906 120.382812 109.28125 120.515625 108.679688 120.644531 C 106.398438 121.140625 104.167969 121.636719 101.976562 122.132812 C 105.496094 119.75 109.148438 117.476562 112.917969 115.328125 C 109.691406 116.582031 106.539062 117.929688 103.472656 119.371094 C 96.828125 122.476562 89.582031 125.042969 82.460938 127.03125 C 81.480469 127.304688 80.523438 127.574219 79.585938 127.84375 C 82.792969 125.199219 86.152344 122.664062 89.660156 120.246094 C 84.769531 122.921875 80.128906 125.839844 75.761719 128.96875 C 62.554688 132.976562 54.421875 136.171875 54.359375 136.097656 C 54.457031 136.640625 66.097656 113.359375 99.019531 103.550781 C 132.035156 92.726562 174.238281 109.957031 173.617188 110.601562 " fill-opacity="1" fill-rule="nonzero"/><path fill="#009245" d="M 198.105469 185.429688 C 194.777344 175.304688 196.503906 164.980469 196.449219 165.347656 C 195.578125 169.367188 195.285156 173.019531 195.296875 176.238281 C 194.875 174.785156 194.5 173.570312 194.3125 172.949219 C 194.136719 172.382812 193.964844 171.816406 193.796875 171.253906 C 192.910156 168.300781 192.191406 165.304688 191.636719 162.289062 C 191.128906 159.503906 190.910156 156.710938 190.9375 153.957031 C 190.953125 152.277344 190.945312 150.59375 190.914062 148.902344 C 190.15625 150.316406 189.394531 151.722656 188.632812 153.132812 C 184.070312 141.570312 187.15625 130.40625 187.105469 130.789062 C 185.414062 135.636719 184.976562 140.128906 185.054688 143.976562 C 179.875 128.0625 177.378906 110.835938 177.40625 110.804688 C 177.402344 110.324219 204.128906 125.058594 212.257812 145.699219 C 209.601562 143.015625 206.855469 140.398438 204.027344 137.863281 C 204.03125 137.675781 218.570312 151.589844 222.710938 168.378906 C 221.035156 165.371094 218.789062 162.339844 215.855469 159.617188 C 215.5 159.25 222.429688 166.992188 224.527344 176.816406 C 224.570312 177.085938 224.613281 177.351562 224.648438 177.621094 C 223.152344 175.898438 221.621094 174.203125 220.0625 172.542969 C 223.722656 179.382812 225.390625 189.015625 224.730469 195.746094 C 224.003906 191.144531 222.496094 185.625 219.566406 179.605469 C 219.359375 179.132812 224.144531 189.191406 224.097656 200.023438 C 224.03125 200.371094 223.96875 200.722656 223.894531 201.0625 C 222.027344 196.550781 219.941406 192.097656 217.640625 187.71875 C 219.773438 193.445312 221.542969 199.214844 222.964844 204.984375 C 219.535156 217.546875 213.964844 224.796875 213.304688 225.796875 C 210.226562 216.3125 211.710938 206.21875 211.628906 206.550781 C 210.703125 211.757812 210.550781 216.183594 210.765625 219.867188 C 209.207031 216.03125 207.207031 211.519531 206.96875 209.558594 C 207.273438 205.1875 207.371094 200.730469 207.25 196.203125 C 206.574219 199.742188 205.777344 203.21875 204.863281 206.621094 C 202.039062 198.652344 200.066406 188.273438 199.292969 180.695312 C 198.917969 182.285156 198.519531 183.863281 198.105469 185.429688 " fill-opacity="1" fill-rule="nonzero"/><path fill="#009245" d="M 145.203125 163.097656 C 148.941406 155.882812 155.476562 151.3125 155.246094 151.480469 C 152.59375 153.152344 150.453125 154.9375 148.703125 156.664062 C 149.273438 155.660156 149.734375 154.804688 149.972656 154.371094 C 150.1875 153.972656 150.402344 153.578125 150.617188 153.1875 C 151.753906 151.125 153 149.136719 154.34375 147.226562 C 155.589844 145.460938 156.992188 143.851562 158.507812 142.394531 C 159.425781 141.511719 160.339844 140.605469 161.242188 139.6875 C 160.070312 140.027344 158.898438 140.367188 157.722656 140.699219 C 161.582031 132.042969 169.304688 127.769531 169.070312 127.945312 C 165.527344 129.609375 162.851562 131.769531 160.800781 133.867188 C 166.695312 122.550781 174.738281 111.996094 174.769531 111.996094 C 175.027344 111.738281 181.269531 134.164062 174.375 149.609375 C 174.421875 146.726562 174.378906 143.839844 174.25 140.941406 C 174.355469 140.84375 174.542969 156.191406 167.613281 167.410156 C 168.355469 164.890625 168.808594 162.046875 168.726562 158.996094 C 168.734375 158.605469 168.21875 166.515625 163.992188 172.902344 C 163.867188 173.066406 163.746094 173.234375 163.621094 173.394531 C 163.757812 171.660156 163.863281 169.921875 163.933594 168.1875 C 162.164062 173.832031 157.8125 179.878906 153.796875 183.113281 C 155.914062 180.261719 158.113281 176.496094 159.824219 171.6875 C 159.972656 171.320312 157.054688 179.292969 151.132812 185.050781 C 150.90625 185.203125 150.683594 185.351562 150.460938 185.492188 C 151.917969 182.070312 153.226562 178.558594 154.382812 174.964844 C 152.402344 179.183594 150.210938 183.226562 147.828125 187.078125 C 139.160156 191.914062 132.242188 192.75 131.34375 192.925781 C 134.863281 186.183594 141.148438 181.605469 140.925781 181.738281 C 137.597656 184.015625 135.109375 186.292969 133.21875 188.375 C 134.472656 185.480469 135.863281 181.984375 136.800781 180.804688 C 139.34375 178.640625 141.824219 176.3125 144.222656 173.832031 C 141.933594 175.351562 139.617188 176.769531 137.277344 178.089844 C 140.105469 172.296875 144.703125 165.683594 148.414062 161.21875 C 147.347656 161.863281 146.277344 162.488281 145.203125 163.097656 " fill-opacity="1" fill-rule="nonzero"/><path fill="#009245" d="M 234.539062 149.777344 C 228.382812 143.113281 224.269531 135.007812 224.328125 135.242188 C 225.917969 138.582031 227.421875 141.394531 228.847656 143.800781 C 227.949219 142.875 227.179688 142.132812 226.78125 141.75 C 226.421875 141.402344 226.058594 141.054688 225.703125 140.714844 C 223.820312 138.914062 221.984375 137.074219 220.175781 135.183594 C 218.503906 133.4375 216.933594 131.589844 215.417969 129.671875 C 214.496094 128.5 213.527344 127.347656 212.511719 126.210938 C 213.007812 127.550781 213.453125 128.882812 213.855469 130.210938 C 205.667969 124.539062 199.167969 116.179688 199.253906 116.417969 C 202.132812 120.304688 204.734375 123.390625 207.042969 125.863281 C 195.816406 117.886719 181.515625 110.375 181.324219 110.46875 C 181.359375 110.546875 185.394531 108.359375 192.511719 107.605469 C 199.503906 106.792969 209.765625 107.6875 219.019531 112.820312 C 216.007812 112.308594 213.042969 111.976562 210.148438 111.808594 C 209.773438 111.683594 226.144531 112.851562 239.582031 125.332031 C 236.792969 123.597656 233.699219 122.234375 230.542969 121.574219 C 230.074219 121.464844 238.664062 123.980469 245.867188 131.824219 C 246.050781 132.042969 246.238281 132.265625 246.417969 132.488281 C 244.589844 131.648438 242.765625 130.890625 240.945312 130.203125 C 247.070312 134.28125 253.5625 142.519531 256.332031 149.269531 C 253.671875 145.140625 249.871094 140.578125 244.84375 136.578125 C 244.390625 136.207031 253.03125 142.984375 257.921875 153.621094 C 258.039062 153.980469 258.148438 154.339844 258.253906 154.695312 C 255.046875 150.972656 251.609375 147.59375 248.023438 144.578125 C 252.175781 148.863281 255.980469 153.644531 259.3125 158.832031 C 262.136719 172.347656 259.308594 180.644531 259.121094 181.671875 C 254.53125 172.675781 252.019531 163.328125 252.042969 163.589844 C 253.234375 168.59375 254.449219 172.757812 255.636719 176.265625 C 253.402344 172.820312 250.5 169.121094 249.679688 167.425781 C 248.484375 163.4375 246.941406 159.480469 245.054688 155.632812 C 245.996094 158.875 246.691406 162.105469 247.15625 165.292969 C 242.449219 158.925781 237.144531 151.234375 233.304688 145.671875 C 233.765625 147.046875 234.175781 148.417969 234.539062 149.777344 " fill-opacity="1" fill-rule="nonzero"/><path fill="#009245" d="M 231.355469 69.671875 C 224.171875 73.175781 216.582031 75.003906 216.78125 74.996094 C 219.875 74.316406 222.535156 73.628906 224.859375 72.9375 C 223.847656 73.457031 223.015625 73.90625 222.589844 74.140625 C 222.203125 74.351562 221.8125 74.5625 221.429688 74.773438 C 219.417969 75.878906 217.390625 76.941406 215.328125 77.980469 C 213.429688 78.941406 211.480469 79.8125 209.5 80.636719 C 208.296875 81.136719 207.085938 81.675781 205.871094 82.246094 C 207.0625 82.074219 208.234375 81.941406 209.386719 81.839844 C 202.277344 86.945312 193.679688 90.457031 193.890625 90.429688 C 197.839844 88.898438 201.082031 87.457031 203.753906 86.140625 C 193.851562 93.113281 180.015625 105.410156 180.023438 105.5625 C 180.09375 105.546875 183.605469 91.785156 197.828125 75.675781 C 196.417969 77.773438 195.160156 79.863281 194.054688 81.929688 C 193.832031 82.179688 200.265625 70.539062 214.359375 62.605469 C 212.089844 64.371094 210 66.414062 208.425781 68.59375 C 208.1875 68.914062 213.015625 63.078125 221.457031 58.984375 C 221.683594 58.882812 221.917969 58.777344 222.148438 58.679688 C 220.890625 59.882812 219.691406 61.089844 218.550781 62.308594 C 223.742188 58.460938 232.242188 54.9375 238.34375 53.890625 C 234.285156 55.230469 229.507812 57.328125 224.746094 60.390625 C 224.308594 60.660156 232.417969 55.386719 242.210938 53.351562 C 242.527344 53.320312 242.839844 53.292969 243.148438 53.265625 C 239.214844 55.054688 235.464844 57.058594 231.941406 59.222656 C 236.628906 56.828125 241.574219 54.757812 246.667969 53.085938 C 257.964844 52.941406 263.355469 56.148438 264.078125 56.429688 C 255.644531 58.472656 247.640625 58.972656 247.851562 58.992188 C 252.082031 58.835938 255.679688 58.542969 258.765625 58.179688 C 255.371094 59.308594 251.558594 60.878906 249.984375 61.234375 C 246.527344 61.535156 242.980469 62.09375 239.394531 62.910156 C 242.195312 62.691406 244.902344 62.640625 247.5 62.753906 C 241.03125 65.253906 233.351562 67.996094 227.796875 69.988281 C 229.003906 69.847656 230.195312 69.742188 231.355469 69.671875 " fill-opacity="1" fill-rule="nonzero"/><path fill="#009245" d="M 239.894531 106.5625 C 232.882812 105.351562 226.453125 102.714844 226.597656 102.8125 C 229.183594 103.9375 231.464844 104.824219 233.503906 105.535156 C 232.5 105.382812 231.667969 105.277344 231.238281 105.222656 C 230.851562 105.171875 230.457031 105.121094 230.074219 105.074219 C 228.046875 104.824219 226.023438 104.535156 223.996094 104.214844 C 222.125 103.917969 220.261719 103.535156 218.40625 103.097656 C 217.273438 102.828125 216.121094 102.585938 214.945312 102.371094 C 215.894531 102.867188 216.808594 103.378906 217.695312 103.90625 C 209.90625 103.890625 201.867188 101.949219 202.035156 102.039062 C 205.683594 102.992188 208.773438 103.636719 211.390625 104.078125 C 200.609375 103.957031 184.21875 105.632812 184.144531 105.746094 C 184.203125 105.769531 193.898438 97.660156 212.554688 93.433594 C 210.445312 94.214844 208.449219 95.066406 206.574219 95.984375 C 206.28125 96.046875 216.988281 90.992188 231.296875 92.601562 C 228.738281 92.695312 226.164062 93.082031 223.894531 93.835938 C 223.554688 93.945312 230.078125 92.242188 238.304688 93.683594 C 238.523438 93.730469 238.746094 93.777344 238.964844 93.824219 C 237.429688 94.035156 235.933594 94.285156 234.476562 94.570312 C 240.226562 94.5 248.199219 96.378906 253.152344 98.800781 C 249.523438 97.65625 244.984375 96.683594 239.949219 96.414062 C 239.492188 96.382812 248.09375 96.792969 256.226562 100.425781 C 256.46875 100.566406 256.710938 100.710938 256.949219 100.851562 C 253.175781 100.097656 249.425781 99.589844 245.757812 99.320312 C 250.382812 100.03125 255.035156 101.109375 259.585938 102.554688 C 267.820312 108.339844 270.046875 113.460938 270.421875 114.042969 C 263.261719 111.125 257.222656 107.316406 257.367188 107.4375 C 260.503906 109.53125 263.253906 111.191406 265.671875 112.539062 C 262.632812 111.585938 259.0625 110.734375 257.738281 110.171875 C 255.085938 108.585938 252.230469 107.140625 249.21875 105.867188 C 251.355469 107.164062 253.339844 108.539062 255.15625 109.972656 C 249.183594 108.410156 242.207031 106.390625 237.160156 104.933594 C 238.105469 105.464844 239.019531 106.007812 239.894531 106.5625 " fill-opacity="1" fill-rule="nonzero"/><path fill="#009245" d="M 129.59375 50.625 C 136.375 57.015625 144.082031 61.792969 143.875 61.710938 C 140.714844 59.828125 138.039062 58.097656 135.730469 56.496094 C 136.683594 57.417969 137.46875 58.203125 137.867188 58.605469 C 138.230469 58.972656 138.589844 59.335938 138.949219 59.699219 C 140.835938 61.605469 142.757812 63.472656 144.722656 65.328125 C 146.535156 67.039062 148.421875 68.671875 150.367188 70.273438 C 151.546875 71.246094 152.730469 72.261719 153.910156 73.308594 C 152.65625 72.675781 151.417969 72.085938 150.199219 71.539062 C 156.632812 79.441406 165.222656 86.296875 165.003906 86.195312 C 161.03125 83.113281 157.84375 80.410156 155.261719 78.050781 C 164.304688 88.898438 173.800781 102.171875 173.765625 102.320312 C 173.6875 102.269531 174.84375 99.289062 174.105469 93.390625 C 173.4375 87.613281 170.589844 78.679688 164.269531 69.828125 C 165.3125 72.515625 166.1875 75.121094 166.910156 77.644531 C 167.113281 78.003906 162.785156 63.710938 149.34375 49.875 C 151.390625 52.601562 153.191406 55.539062 154.386719 58.402344 C 154.582031 58.835938 150.671875 50.917969 142.523438 43.304688 C 142.296875 43.105469 142.070312 42.910156 141.847656 42.714844 C 142.933594 44.464844 143.949219 46.203125 144.898438 47.914062 C 140.179688 41.871094 131.871094 34.808594 125.644531 31.289062 C 129.648438 34.308594 134.277344 38.40625 138.6875 43.480469 C 139.097656 43.941406 131.578125 35.226562 121.671875 29.195312 C 121.351562 29.039062 121.023438 28.886719 120.707031 28.738281 C 124.476562 32.195312 128.019531 35.789062 131.28125 39.4375 C 126.832031 35.089844 122.046875 30.949219 117.042969 27.15625 C 105.21875 22.550781 99.105469 23.902344 98.304688 23.925781 C 106.585938 29.449219 114.820312 33.066406 114.601562 33.007812 C 110.21875 31.199219 106.558594 29.492188 103.445312 27.898438 C 106.722656 30.4375 110.363281 33.597656 111.921875 34.578125 C 115.453125 36.238281 119.039062 38.195312 122.621094 40.441406 C 119.730469 39.128906 116.914062 38.03125 114.191406 37.15625 C 120.394531 42.308594 127.84375 48.117188 133.289062 52.3125 C 132.039062 51.707031 130.808594 51.140625 129.59375 50.625 " fill-opacity="1" fill-rule="nonzero"/><g clip-path="url(#8e0110bb42)"><path fill="#f09c13" d="M 316.199219 176.730469 C 320.707031 189.992188 323.152344 204.207031 323.152344 218.996094 C 323.152344 291.460938 264.445312 350.207031 192.027344 350.207031 C 128.011719 350.207031 74.71875 304.296875 63.210938 243.59375 C 64.9375 316.417969 124.46875 374.917969 197.660156 374.917969 C 271.9375 374.917969 332.148438 314.667969 332.148438 240.34375 C 332.148438 217.332031 326.371094 195.671875 316.199219 176.730469 " fill-opacity="1" fill-rule="nonzero"/></g><path fill="#009245" d="M 196.523438 326.152344 C 137.382812 326.152344 89.4375 278.175781 89.4375 218.996094 C 89.4375 171.191406 120.71875 130.707031 163.914062 116.90625 C 112.777344 127.566406 74.359375 172.921875 74.359375 227.257812 C 74.359375 289.515625 124.796875 339.984375 187.015625 339.984375 C 235.78125 339.984375 277.308594 308.972656 292.984375 265.585938 C 275.664062 301.429688 238.980469 326.152344 196.523438 326.152344 " fill-opacity="1" fill-rule="nonzero"/><path fill="#46a4de" d="M 155.246094 285.695312 C 155.246094 285.695312 155.703125 285.609375 156.554688 285.445312 C 156.984375 285.363281 157.511719 285.265625 158.136719 285.148438 C 158.757812 285.015625 159.46875 284.859375 160.273438 284.683594 C 163.472656 283.960938 168.035156 282.753906 173.449219 280.753906 C 178.867188 278.769531 185.125 276.011719 191.894531 272.542969 C 193.589844 271.671875 195.3125 270.769531 197.085938 269.828125 C 198.867188 268.882812 200.761719 267.875 202.832031 266.941406 C 204.898438 266.007812 207.160156 265.148438 209.609375 264.550781 C 210.222656 264.402344 210.847656 264.273438 211.476562 264.160156 C 212.109375 264.082031 212.742188 264 213.378906 263.921875 C 214.652344 263.71875 215.9375 263.734375 217.226562 263.714844 C 222.414062 263.730469 227.125 265.058594 231.289062 266.503906 C 235.472656 267.976562 239.191406 269.644531 242.6875 271.035156 C 246.179688 272.4375 249.449219 273.570312 252.574219 274.246094 C 252.960938 274.335938 253.351562 274.425781 253.734375 274.511719 C 254.121094 274.566406 254.503906 274.625 254.878906 274.679688 C 255.640625 274.789062 256.390625 274.933594 257.128906 274.976562 C 258.605469 275.109375 260.054688 275.140625 261.449219 275.09375 C 267.046875 274.898438 271.722656 273.808594 274.929688 273.136719 C 278.128906 272.421875 279.949219 272.019531 279.949219 272.019531 C 279.949219 272.019531 278.363281 272.941406 275.402344 274.453125 C 273.917969 275.207031 272.085938 276.101562 269.871094 277.015625 C 267.652344 277.914062 265.0625 278.863281 262.027344 279.53125 C 260.511719 279.878906 258.882812 280.144531 257.15625 280.289062 C 256.292969 280.382812 255.410156 280.375 254.507812 280.390625 C 254.050781 280.394531 253.597656 280.398438 253.136719 280.402344 C 252.679688 280.375 252.21875 280.34375 251.753906 280.316406 C 248.027344 280.085938 244.140625 279.28125 240.28125 278.195312 C 236.414062 277.121094 232.550781 275.777344 228.683594 274.667969 C 224.820312 273.570312 220.941406 272.660156 217.136719 272.671875 C 216.1875 272.695312 215.238281 272.652344 214.320312 272.800781 C 213.855469 272.847656 213.398438 272.890625 212.9375 272.9375 C 212.484375 273.011719 212.035156 273.085938 211.582031 273.1875 C 209.777344 273.5625 207.96875 274.144531 206.140625 274.847656 C 204.316406 275.546875 202.472656 276.355469 200.589844 277.164062 C 198.695312 277.976562 196.800781 278.742188 194.949219 279.453125 C 187.527344 282.296875 180.527344 284.125 174.574219 285.085938 C 168.621094 286.070312 163.734375 286.183594 160.402344 286.074219 C 159.574219 286.039062 158.832031 286.003906 158.1875 285.972656 C 157.550781 285.917969 157.011719 285.867188 156.574219 285.828125 C 155.707031 285.742188 155.246094 285.695312 155.246094 285.695312 " fill-opacity="1" fill-rule="nonzero"/><path fill="#2d719d" d="M 262.839844 296.679688 C 262.839844 296.679688 260.921875 296.351562 257.480469 295.675781 C 254.046875 295.03125 249.089844 293.941406 243.066406 293.214844 C 237.035156 292.457031 230.050781 292.503906 222.480469 294.160156 C 214.902344 295.753906 206.855469 298.867188 198.574219 302.808594 C 196.5 303.804688 194.480469 304.808594 192.449219 305.84375 C 190.394531 306.882812 188.246094 307.964844 185.949219 308.890625 C 183.65625 309.816406 181.179688 310.570312 178.597656 310.925781 C 176.003906 311.253906 173.433594 311.167969 171.046875 310.722656 C 166.25 309.832031 162.371094 307.765625 159.121094 305.730469 C 155.867188 303.660156 153.140625 301.539062 150.667969 299.660156 C 148.199219 297.769531 145.992188 296.109375 143.980469 294.753906 C 141.96875 293.402344 140.160156 292.359375 138.621094 291.601562 C 137.085938 290.828125 135.824219 290.375 134.957031 290.058594 C 134.085938 289.78125 133.617188 289.632812 133.617188 289.632812 C 133.617188 289.632812 134.109375 289.640625 135.035156 289.660156 C 135.960938 289.722656 137.347656 289.824219 139.097656 290.199219 C 140.851562 290.558594 142.976562 291.167969 145.359375 292.085938 C 147.734375 293.003906 150.363281 294.226562 153.171875 295.632812 C 155.984375 297.03125 158.984375 298.609375 162.171875 300.011719 C 165.351562 301.398438 168.75 302.570312 172.128906 302.792969 C 173.816406 302.917969 175.503906 302.785156 177.15625 302.441406 C 178.820312 302.058594 180.542969 301.414062 182.351562 300.558594 C 184.160156 299.703125 186.046875 298.660156 188.078125 297.546875 C 190.132812 296.421875 192.296875 295.304688 194.5 294.25 C 203.34375 290.03125 212.539062 287.117188 221.253906 286.253906 C 225.597656 285.804688 229.789062 285.84375 233.648438 286.304688 C 237.523438 286.730469 241.003906 287.621094 244.070312 288.582031 C 250.195312 290.550781 254.769531 292.777344 257.949219 294.269531 C 261.109375 295.792969 262.839844 296.679688 262.839844 296.679688 " fill-opacity="1" fill-rule="nonzero"/><path fill="#f09c13" d="M 155.804688 249.410156 C 156.992188 249.667969 158.152344 249.828125 159.277344 249.859375 C 160.402344 249.882812 161.503906 249.773438 162.585938 249.570312 C 164.714844 249.148438 167.097656 248.101562 169.789062 246.65625 C 171.136719 245.9375 172.566406 245.117188 174.105469 244.269531 C 175.664062 243.417969 177.253906 242.574219 178.878906 241.757812 C 182.132812 240.128906 185.535156 238.597656 189.09375 237.242188 C 192.925781 235.78125 196.859375 234.570312 200.835938 233.675781 C 202.011719 230.078125 202.652344 226.242188 202.652344 222.25 C 202.652344 201.910156 186.175781 185.421875 165.847656 185.421875 C 145.523438 185.421875 129.046875 201.910156 129.046875 222.25 C 129.046875 228.339844 130.53125 234.078125 133.148438 239.140625 C 135.835938 240.289062 138.5 241.640625 141.140625 243.027344 C 146.027344 245.574219 151.027344 248.347656 155.804688 249.410156 " fill-opacity="1" fill-rule="nonzero"/><path fill="#2d719d" d="M 289.964844 251.292969 C 289.304688 251.488281 288.480469 251.695312 287.519531 251.9375 C 286.535156 252.117188 285.429688 252.359375 284.15625 252.480469 C 281.625 252.773438 278.523438 252.820312 274.988281 252.417969 C 271.453125 252.015625 267.488281 251.132812 263.21875 249.777344 C 258.949219 248.441406 254.394531 246.539062 249.335938 244.414062 C 244.285156 242.308594 238.753906 239.945312 232.382812 238.097656 C 229.203125 237.179688 225.804688 236.414062 222.203125 235.972656 C 218.597656 235.546875 214.875 235.453125 211.140625 235.703125 C 207.691406 235.925781 204.246094 236.460938 200.835938 237.226562 C 196.859375 238.117188 192.925781 239.328125 189.09375 240.789062 C 185.535156 242.144531 182.132812 243.679688 178.878906 245.304688 C 177.253906 246.121094 175.664062 246.964844 174.105469 247.820312 C 172.566406 248.664062 171.136719 249.484375 169.789062 250.203125 C 167.097656 251.648438 164.714844 252.695312 162.585938 253.117188 C 161.503906 253.320312 160.402344 253.429688 159.277344 253.40625 C 158.152344 253.375 156.992188 253.214844 155.804688 252.957031 C 151.027344 251.894531 146.027344 249.121094 141.140625 246.574219 C 138.5 245.1875 135.835938 243.835938 133.148438 242.6875 C 130.84375 241.703125 128.523438 240.859375 126.183594 240.289062 C 123.664062 239.667969 121.144531 239.347656 118.785156 239.371094 C 116.425781 239.390625 114.269531 239.71875 112.332031 240.167969 C 108.449219 241.078125 105.421875 242.425781 103.011719 243.574219 C 100.605469 244.734375 98.820312 245.746094 97.605469 246.425781 C 96.402344 247.121094 95.769531 247.484375 95.769531 247.484375 C 95.769531 247.484375 96.480469 247.316406 97.832031 246.996094 C 99.179688 246.679688 101.167969 246.1875 103.71875 245.683594 C 106.261719 245.191406 109.386719 244.660156 112.882812 244.640625 C 114.625 244.636719 116.453125 244.769531 118.292969 245.148438 C 120.128906 245.519531 121.988281 246.15625 123.890625 247.035156 C 127.707031 248.785156 131.59375 251.589844 135.988281 254.839844 C 138.203125 256.460938 140.539062 258.199219 143.207031 259.894531 C 145.867188 261.578125 148.847656 263.269531 152.414062 264.492188 C 154.191406 265.097656 156.101562 265.589844 158.128906 265.859375 C 160.15625 266.117188 162.269531 266.140625 164.394531 265.925781 C 168.695312 265.460938 172.511719 263.957031 175.828125 262.429688 C 177.5 261.660156 179.054688 260.871094 180.546875 260.132812 C 182.023438 259.410156 183.507812 258.6875 185.007812 257.992188 C 188.007812 256.605469 191.058594 255.289062 194.160156 254.109375 C 200.367188 251.742188 206.492188 250.011719 212.417969 249.28125 C 215.378906 248.910156 218.28125 248.773438 221.125 248.863281 C 223.96875 248.964844 226.820312 249.3125 229.652344 249.804688 C 235.320312 250.792969 240.894531 252.320312 246.265625 253.660156 C 251.632812 255.007812 256.859375 256.195312 261.75 256.75 C 266.621094 257.324219 271.109375 257.363281 274.996094 256.925781 C 278.890625 256.496094 282.160156 255.621094 284.695312 254.640625 C 285.972656 254.175781 287.046875 253.617188 287.976562 253.167969 C 288.878906 252.660156 289.632812 252.222656 290.222656 251.847656 C 291.363281 251.042969 291.964844 250.617188 291.964844 250.617188 C 291.964844 250.617188 291.273438 250.851562 289.964844 251.292969 " fill-opacity="1" fill-rule="nonzero"/></svg>